<svg width="151" height="37" viewBox="0 0 151 37" fill="none" xmlns="http://www.w3.org/2000/svg">
<g clip-path="url(#clip0_454_5032)">
<path d="M27.7148 27.4392L24.6841 20.2554L19.876 19.2776L19.1284 19.1263L19.132 19.1337L16.7976 18.6799L19.5223 20.058L22.6062 27.3691H19.2072C14.5291 27.3691 10.7233 23.5373 10.7233 18.8275C10.7233 16.1968 11.9162 13.7597 13.9116 12.1547L12.1636 7.63672C8.36689 10.0571 6.04712 14.2523 6.04712 18.8275C6.04712 26.133 11.951 32.0771 19.2072 32.0771H24.6676C25.7835 32.0771 26.8151 31.5181 27.4308 30.5809C28.0465 29.6456 28.1528 28.4704 27.7167 27.4373L27.7148 27.4392Z" fill="black"/>
<path d="M23.6563 4.9248H18.1958C17.0799 4.9248 16.0483 5.48379 15.4326 6.42096C14.8169 7.3563 14.7107 8.53146 15.1468 9.56456L18.1775 16.7483L22.9856 17.7261L23.7332 17.8774L23.7296 17.87L26.064 18.3238L23.3393 16.9457L20.2554 9.63467H23.6544C28.3325 9.63467 32.1383 13.4664 32.1383 18.1762C32.1383 20.807 30.9454 23.244 28.95 24.849L30.698 29.367C34.4947 26.9466 36.8145 22.7514 36.8145 18.1762C36.8145 10.8707 30.9106 4.92665 23.6544 4.92665L23.6563 4.9248Z" fill="#23AA4A"/>
<path d="M114.004 15.7004L113.806 15.6562C113.67 15.6248 113.539 15.599 113.408 15.575C113.271 15.551 113.128 15.5381 112.983 15.5381C112.173 15.5381 111.477 15.7466 110.911 16.158C110.532 16.4328 110.196 16.7667 109.91 17.1523C109.91 17.1468 109.91 17.1412 109.91 17.1376C109.903 16.7815 109.892 16.4107 109.877 16.0233L109.868 15.8056H108.104V16.0325C108.104 16.169 108.111 16.3627 108.126 16.6118C108.14 16.8535 108.151 17.1136 108.159 17.3921C108.166 17.6762 108.177 17.9548 108.192 18.2315C108.206 18.5009 108.214 18.7296 108.214 18.9197V26.5204H109.987V20.6962C109.987 20.2166 110.052 19.7646 110.176 19.3514C110.299 18.9455 110.49 18.5876 110.741 18.2869C110.99 17.9899 111.31 17.7519 111.695 17.5822C112.084 17.4106 112.555 17.3239 113.095 17.3239C113.231 17.3239 113.377 17.3497 113.531 17.4014L113.793 17.4881L114.004 15.7004Z" fill="#23AA4A"/>
<path d="M123.306 17.1265C122.808 16.6247 122.212 16.2317 121.532 15.955C120.853 15.6783 120.101 15.5381 119.297 15.5381C118.493 15.5381 117.738 15.6783 117.052 15.955C116.365 16.2317 115.768 16.6265 115.277 17.1283C114.788 17.6283 114.401 18.2279 114.126 18.9123C113.851 19.5949 113.712 20.3513 113.712 21.163C113.712 21.9747 113.851 22.7329 114.126 23.4137C114.401 24.0981 114.788 24.6995 115.277 25.1976C115.768 25.6994 116.365 26.0942 117.052 26.371C117.738 26.6477 118.494 26.7879 119.297 26.7879C120.1 26.7879 120.854 26.6477 121.532 26.371C122.212 26.0942 122.808 25.6994 123.306 25.1995C123.803 24.6995 124.195 24.1 124.47 23.4137C124.743 22.7311 124.882 21.9747 124.882 21.163C124.882 20.3513 124.743 19.5949 124.47 18.9123C124.195 18.2279 123.803 17.6264 123.306 17.1265ZM119.297 25.1349C118.712 25.1349 118.179 25.0298 117.71 24.8213C117.241 24.6128 116.836 24.3287 116.504 23.9745C116.175 23.6203 115.92 23.1978 115.746 22.72C115.572 22.2367 115.484 21.7127 115.484 21.1648C115.484 20.6169 115.572 20.093 115.746 19.6096C115.918 19.13 116.175 18.7075 116.504 18.3551C116.834 18.0009 117.241 17.715 117.71 17.5065C118.179 17.2981 118.714 17.1929 119.297 17.1929C119.88 17.1929 120.413 17.2981 120.884 17.5065C121.355 17.715 121.76 18.0009 122.089 18.3551C122.419 18.7075 122.674 19.13 122.848 19.6096C123.022 20.093 123.11 20.6169 123.11 21.1648C123.11 21.7127 123.022 22.2367 122.848 22.72C122.674 23.1997 122.419 23.6221 122.089 23.9745C121.758 24.3287 121.353 24.6128 120.884 24.8213C120.415 25.0298 119.881 25.1349 119.297 25.1349Z" fill="#23AA4A"/>
<path d="M130.192 24.2171L126.952 15.8047H124.962L129.316 26.5195H130.987L135.181 15.8047H133.349L130.192 24.2171Z" fill="#23AA4A"/>
<path d="M145.599 20.5634C145.599 19.9491 145.491 19.3329 145.277 18.7315C145.06 18.1282 144.738 17.584 144.316 17.1117C143.893 16.6395 143.364 16.2557 142.742 15.9698C142.119 15.6838 141.394 15.5381 140.586 15.5381C139.778 15.5381 139.089 15.682 138.442 15.9679C137.799 16.2539 137.232 16.6524 136.76 17.1523C136.285 17.6541 135.913 18.25 135.653 18.9252C135.395 19.5986 135.263 20.3439 135.263 21.139C135.263 21.9341 135.389 22.7256 135.64 23.4063C135.893 24.0926 136.261 24.694 136.736 25.1939C137.21 25.6957 137.786 26.0905 138.444 26.3691C139.101 26.6458 139.844 26.786 140.65 26.786C141.588 26.786 142.462 26.6071 143.246 26.2547C144.04 25.8987 144.714 25.3028 145.251 24.4837L145.361 24.3158L144.036 23.1941L143.9 23.4211C143.585 23.945 143.125 24.3638 142.534 24.67C141.936 24.9781 141.31 25.1349 140.672 25.1349C139.937 25.1349 139.334 24.9966 138.878 24.7235C138.414 24.4449 138.041 24.1073 137.766 23.7199C137.489 23.3307 137.297 22.9266 137.194 22.5189C137.117 22.2127 137.068 21.947 137.047 21.7238H145.595V20.5634H145.599ZM137.075 20.0708C137.099 19.9675 137.139 19.8236 137.205 19.6226C137.315 19.2849 137.504 18.9289 137.768 18.5636C138.028 18.2057 138.389 17.881 138.839 17.6006C139.279 17.3276 139.845 17.1892 140.52 17.1892C140.972 17.1892 141.408 17.2741 141.813 17.4401C142.218 17.6061 142.574 17.8331 142.869 18.1153C143.164 18.3994 143.398 18.7296 143.571 19.1023C143.71 19.4049 143.792 19.7277 143.818 20.069H137.075V20.0708Z" fill="#23AA4A"/>
<path d="M103.738 18.9857V24.2969C103.19 24.6032 102.576 24.819 101.915 24.9389C101.196 25.0699 100.416 25.1363 99.5948 25.1363C98.6163 25.1363 97.7221 24.9629 96.936 24.6216C96.1518 24.2803 95.4756 23.8044 94.9259 23.2085C94.3762 22.6108 93.9456 21.8968 93.6488 21.0851C93.3501 20.2715 93.1998 19.3786 93.1998 18.4304C93.1998 17.4821 93.3501 16.5911 93.6488 15.7775C93.9456 14.9658 94.3762 14.2518 94.9259 13.6541C95.4756 13.0582 96.1518 12.5822 96.936 12.2409C97.7203 11.8996 98.6145 11.7262 99.5948 11.7262C100.003 11.7262 100.425 11.7723 100.848 11.8646C101.275 11.9587 101.689 12.0878 102.078 12.252C102.466 12.4162 102.831 12.6173 103.161 12.8516C103.489 13.0822 103.767 13.3349 103.989 13.6006L104.15 13.7924L105.533 12.3406L105.38 12.1837C103.916 10.695 101.97 9.94043 99.5948 9.94043C98.3799 9.94043 97.2475 10.1563 96.2324 10.5787C95.2173 11.0031 94.3341 11.5989 93.6085 12.3516C92.8865 13.1025 92.313 14.0064 91.9062 15.0359C91.5012 16.0653 91.2942 17.2072 91.2942 18.4285C91.2942 19.6498 91.4994 20.7973 91.9062 21.8322C92.313 22.869 92.8847 23.7767 93.6085 24.5275C94.3341 25.2802 95.2173 25.8743 96.2342 26.2894C97.2494 26.7063 98.3799 26.9166 99.5948 26.9166C100.621 26.9166 101.642 26.8059 102.633 26.5901C103.628 26.3724 104.603 25.9942 105.532 25.4666L105.645 25.402V17.5799H100.251L103.74 18.982L103.738 18.9857Z" fill="#23AA4A"/>
<path d="M56.1724 18.9857V24.2969C55.6226 24.6032 55.0106 24.819 54.3492 24.9389C53.6309 25.0699 52.8503 25.1363 52.0275 25.1363C51.0491 25.1363 50.1549 24.9629 49.3706 24.6216C48.5882 24.2803 47.9121 23.8044 47.3605 23.2085C46.8108 22.6108 46.3802 21.8968 46.0834 21.0851C45.7847 20.2697 45.6344 19.3768 45.6344 18.4304C45.6344 17.484 45.7847 16.5929 46.0834 15.7775C46.3802 14.9658 46.8108 14.2518 47.3605 13.6541C47.9102 13.0582 48.5864 12.5822 49.3706 12.2409C50.1549 11.8996 51.0491 11.7262 52.0275 11.7262C52.4362 11.7262 52.8576 11.7723 53.2809 11.8646C53.7078 11.9587 54.1219 12.0878 54.5104 12.252C54.8989 12.4162 55.2617 12.6173 55.5933 12.8516C55.9213 13.084 56.1998 13.3349 56.4216 13.6006L56.5828 13.7924L57.9662 12.3406L57.8123 12.1837C56.3483 10.695 54.4023 9.94043 52.0257 9.94043C50.8109 9.94043 49.6803 10.1563 48.6633 10.5787C47.6464 11.0031 46.765 11.5989 46.0394 12.3516C45.3174 13.1025 44.7439 14.0046 44.3371 15.0359C43.9322 16.0653 43.7251 17.2072 43.7251 18.4285C43.7251 19.6498 43.9303 20.7973 44.3371 21.8322C44.7439 22.8709 45.3156 23.7767 46.0394 24.5275C46.7632 25.2802 47.6464 25.8724 48.6633 26.2894C49.6785 26.7063 50.8109 26.9166 52.0239 26.9166C53.05 26.9166 54.0706 26.8059 55.0619 26.5901C56.0569 26.3724 57.0317 25.9942 57.9589 25.4666L58.0725 25.402V17.5799H52.678L56.1669 18.982L56.1724 18.9857Z" fill="black"/>
<path d="M64.2899 24.0474L61.0704 15.8047H56.6965L59.5019 16.7917L63.3444 26.3387L62.4483 28.6374C62.3769 28.8384 62.2944 29.0377 62.2046 29.2277C62.1167 29.4103 62.0122 29.5782 61.8913 29.7258C61.7777 29.866 61.6384 29.9822 61.4808 30.0708C61.1877 30.2368 60.779 30.2239 60.4126 30.128C60.2165 30.0763 60.0241 30.021 59.8372 29.9638L59.577 29.8845L59.3956 31.5909L59.577 31.6426C59.7914 31.7035 60.0149 31.7533 60.2422 31.792C60.4767 31.8308 60.7112 31.8511 60.9403 31.8511C61.7282 31.8511 62.3714 31.6389 62.8533 31.2183C63.3205 30.8106 63.6907 30.2497 63.9527 29.5524L69.3252 15.8047H67.4287L64.2935 24.0474H64.2899Z" fill="black"/>
<path d="M78.4528 25.3878C78.4308 25.0944 78.4125 24.779 78.3978 24.4395C78.3832 24.1019 78.3722 23.7329 78.3648 23.3345C78.3575 22.936 78.3538 22.4858 78.3538 21.984V19.4751C78.3538 18.1044 77.9544 17.0934 77.1646 16.4661C76.3914 15.8518 75.3506 15.54 74.0698 15.54C73.3863 15.54 72.6644 15.6673 71.9241 15.9182C71.1746 16.1728 70.537 16.5529 70.0294 17.0473L69.8792 17.1949L70.9346 18.4401L71.105 18.2925C71.9571 17.562 72.9539 17.1912 74.0698 17.1912C74.843 17.1912 75.4899 17.372 75.9919 17.728C76.4775 18.0712 76.7139 18.6357 76.7139 19.4529V19.8477H75.3946C74.8907 19.8477 74.3007 19.8809 73.641 19.9492C72.9704 20.0175 72.3254 20.1706 71.728 20.4067C71.116 20.6484 70.5938 21.0174 70.1742 21.5025C69.7417 22.0025 69.5237 22.6795 69.5237 23.5171C69.5237 24.1019 69.641 24.6092 69.8718 25.0262C70.1009 25.4376 70.3995 25.7807 70.7642 26.0445C71.1233 26.3046 71.5338 26.4947 71.9864 26.6127C72.4298 26.729 72.8861 26.7861 73.3442 26.7861C74.2457 26.7861 75.0061 26.6201 75.6035 26.2917C76.0377 26.0537 76.4244 25.7143 76.756 25.2789C76.7762 25.6516 76.8165 26.0039 76.8733 26.3323L76.9063 26.5187H78.5921L78.5536 26.2585C78.5114 25.9707 78.4784 25.6774 78.4565 25.3859L78.4528 25.3878ZM76.7139 21.366V21.8291C76.7139 22.2368 76.6644 22.65 76.5655 23.0522C76.4702 23.4396 76.2961 23.7901 76.0469 24.0945C75.7977 24.3989 75.4587 24.6517 75.0354 24.8435C74.6122 25.0372 74.0551 25.135 73.3845 25.135C73.1279 25.135 72.8714 25.0963 72.6204 25.0225C72.373 24.9487 72.1476 24.8398 71.9461 24.6978C71.7537 24.5613 71.5924 24.3842 71.4715 24.1702C71.3506 23.9599 71.2919 23.7237 71.2919 23.4507C71.2919 23.0596 71.3964 22.7441 71.6144 22.4858C71.8398 22.2183 72.1495 22.0006 72.5343 21.8365C72.9319 21.6686 73.3881 21.545 73.8902 21.4749C74.3996 21.4029 74.9347 21.366 75.4807 21.366H76.712H76.7139Z" fill="black"/>
<path d="M89.5676 18.4954C89.4522 17.9345 89.2396 17.4309 88.9354 16.9992C88.6276 16.5638 88.2025 16.2078 87.6729 15.9403C87.1434 15.6746 86.4562 15.5381 85.6317 15.5381C84.8071 15.5381 83.999 15.7558 83.3467 16.1856C82.8941 16.4845 82.5277 16.8276 82.251 17.2114C82.251 17.1874 82.251 17.1634 82.251 17.1376C82.2436 16.7815 82.2326 16.4107 82.218 16.0233L82.2088 15.8056H77.6536L80.4754 16.8C80.4846 16.9881 80.4937 17.1837 80.4992 17.394C80.5066 17.6781 80.5175 17.9567 80.5322 18.2334C80.5469 18.5027 80.5542 18.7315 80.5542 18.9197V26.5204H82.3279V21.163C82.3279 20.4804 82.4159 19.8827 82.5918 19.3827C82.764 18.8883 83.0004 18.4751 83.2954 18.1504C83.5868 17.8294 83.9367 17.5877 84.3362 17.4309C84.743 17.2722 85.1791 17.1911 85.6335 17.1911C86.1209 17.1911 86.5185 17.2759 86.8154 17.4401C87.1086 17.6043 87.3413 17.8275 87.5044 18.1024C87.6729 18.3865 87.7939 18.7167 87.8635 19.0839C87.935 19.462 87.9698 19.855 87.9698 20.2516V26.5204H89.7435V20.1852C89.7435 19.6078 89.6867 19.0396 89.5731 18.4954H89.5676Z" fill="black"/>
<path d="M108.413 16.653V16.0312H106.645L108.413 16.653Z" fill="#00AA3A"/>
<path d="M108.636 16.9705L105.321 15.8027H108.636V16.9705ZM107.967 16.2566L108.187 16.334V16.2566H107.967Z" fill="#00AA3A"/>
<path d="M125.54 16.653V16.0312H123.772L125.54 16.653Z" fill="#00AA3A"/>
<path d="M125.765 16.9705L122.448 15.8027H125.765V16.9705ZM125.096 16.2566L125.316 16.334V16.2566H125.096Z" fill="#00AA3A"/>
</g>
<defs>
<clipPath id="clip0_454_5032">
<rect width="149.79" height="37" fill="white" transform="translate(0.927734)"/>
</clipPath>
</defs>
</svg>
